<svg xmlns="http://www.w3.org/2000/svg" version="1.1" xmlns:xlink="http://www.w3.org/1999/xlink" xmlns:svgjs="http://svgjs.dev/svgjs" width="1000" height="1000" viewBox="0 0 1000 1000"><rect width="1000" height="1000" fill="#89939e"></rect><g transform="matrix(0.7,0,0,0.7,149.57575757575756,282.1265587044535)"><svg viewBox="0 0 396 247" data-background-color="#89939e" preserveAspectRatio="xMidYMid meet" height="623" width="1000" xmlns="http://www.w3.org/2000/svg" xmlns:xlink="http://www.w3.org/1999/xlink"><g id="tight-bounds" transform="matrix(1,0,0,1,0.2400000000000091,-0.09999999999999432)"><svg viewBox="0 0 395.52 247.2" height="247.2" width="395.52"><g><svg></svg></g><g><svg viewBox="0 0 395.52 247.2" height="247.2" width="395.52"><g transform="matrix(1,0,0,1,75.54432,73.96904143828161)"><svg viewBox="0 0 244.43135999999998 99.26191712343677" height="99.26191712343677" width="244.43135999999998"><g><svg viewBox="0 0 244.43135999999998 99.26191712343677" height="99.26191712343677" width="244.43135999999998"><g><svg viewBox="0 0 244.43135999999998 99.26191712343677" height="99.26191712343677" width="244.43135999999998"><g><svg viewBox="0 0 244.43135999999998 99.26191712343677" height="99.26191712343677" width="244.43135999999998"><g><svg viewBox="0 0 244.43135999999998 99.26191712343677" height="99.26191712343677" width="244.43135999999998"><g><svg viewBox="0 0 244.43135999999998 61.013489243437974" height="61.013489243437974" width="244.43135999999998"><g transform="matrix(1,0,0,1,0,0)"><svg width="244.43135999999998" viewBox="2.299999952316284 -39 194.2899932861328 48.5" height="61.013489243437974" data-palette-color="#000000"><path d="M18.75-33.3L18.75-33.3Q16.65-33.3 14.93-32.52 13.2-31.75 12.1-30.2L12.1-30.2Q10.7-28.25 9.8-25.25 8.9-22.25 8.9-18.6L8.9-18.6Q8.9-15.05 9.65-11.95 10.4-8.85 11.75-6.75L11.75-6.75Q12.95-4.9 14.85-4.05 16.75-3.2 19.25-3.2L19.25-3.2Q27.85-3.2 29.3-11.65L29.3-11.65 33.05-11.65Q30.7 0.5 18.35 0.5L18.35 0.5Q11.45 0.5 7.35-3.5L7.35-3.5Q4.9-5.9 3.6-9.55 2.3-13.2 2.3-17.65L2.3-17.65Q2.3-22.7 3.95-26.8 5.6-30.9 8.6-33.35L8.6-33.35Q12.4-36.5 18.65-36.5L18.65-36.5Q21.75-36.5 23.7-35.7 25.65-34.9 27.55-32.85L27.55-32.85 28.55-36 32.3-36 32.3-24.45 28.25-24.45Q27.55-28.85 25.1-31.08 22.65-33.3 18.75-33.3ZM60.7 0.35L60.7 0.35Q60.7 4.7 57.42 6.95 54.15 9.2 47.45 9.2L47.45 9.2Q44.05 9.2 41.42 8.55 38.8 7.9 37.32 6.53 35.85 5.15 35.85 2.9L35.85 2.9Q35.85 0.6 37.27-0.75 38.7-2.1 41.45-2.3L41.45-2.3 41.45-2.5Q37.8-3.5 37.8-6.35L37.8-6.35Q37.8-7.35 38.3-8.4 38.8-9.45 39.9-10.28 41-11.1 42.8-11.45L42.8-11.45Q40.2-12.2 38.75-14.18 37.3-16.15 37.3-18.9L37.3-18.9Q37.3-22.9 40.02-25.2 42.75-27.5 47.65-27.5L47.65-27.5Q50.7-27.5 52.57-26.93 54.45-26.35 55.85-25.2L55.85-25.2 57.55-25.8 62.15-28 63-28 63-23.1 62.15-23.1 58.65-23.5 57.25-23.5Q58.4-21.8 58.4-19.2L58.4-19.2Q58.4-15.15 55.8-12.8 53.2-10.45 48.4-10.45L48.4-10.45Q47.9-10.45 47.4-10.48 46.9-10.5 46.4-10.55L46.4-10.55Q44.4-10.3 43.3-9.63 42.2-8.95 42.2-7.8L42.2-7.8Q42.2-6.85 43.12-6.48 44.05-6.1 46.6-6.1L46.6-6.1 52.4-6.1Q56.5-6.1 58.6-4.53 60.7-2.95 60.7 0.35ZM49.2-1.75L49.2-1.75 46.95-1.75Q43.6-1.75 42.1-0.68 40.6 0.4 40.6 2.15L40.6 2.15Q40.6 6.2 47.95 6.2L47.95 6.2Q51.95 6.2 54.02 5.03 56.1 3.85 56.1 1.55L56.1 1.55Q56.1-0.25 54.55-1 53-1.75 49.2-1.75ZM42.7-19.1L42.7-19.1Q42.7-16.25 43.97-14.75 45.25-13.25 47.7-13.25L47.7-13.25Q50.45-13.25 51.72-14.75 53-16.25 53-19.1L53-19.1Q53-21.85 51.72-23.28 50.45-24.7 47.7-24.7L47.7-24.7Q45.2-24.7 43.95-23.28 42.7-21.85 42.7-19.1ZM92.4-24.45L89.34-23.5 81.2-1.2Q79.65 2.65 78.37 5.03 77.09 7.4 75.55 8.45 74 9.5 71.5 9.5L71.5 9.5Q69.15 9.5 67.47 8.25 65.8 7 65.8 5.1L65.8 5.1Q65.8 3.45 66.75 2.4 67.7 1.35 69.25 1.35L69.25 1.35Q70.59 1.35 71.34 2 72.09 2.65 72.09 3.85L72.09 3.85Q72.09 4.45 71.65 5.25 71.2 6.05 70.2 6.2L70.2 6.2Q70.3 6.7 70.8 6.88 71.3 7.05 71.65 7.05L71.65 7.05Q72.34 7.05 72.95 6.75 73.55 6.45 74.22 5.4 74.9 4.35 75.7 2.2L75.7 2.2 76.3 0.35 66.15-23.5 63.15-24.45 63.15-27 75.34-27 75.75-24.45 72.2-23.5 78.8-5.4 79-5.4 84.8-23.5 81.9-24.45 81.9-27 92.4-27 92.4-24.45ZM94.29-27L103.49-27 103.49-13.35Q103.49-10.15 103.64-8.55 103.79-6.95 104.14-6L104.14-6Q104.59-4.8 105.57-4.17 106.54-3.55 107.69-3.55L107.69-3.55Q109.04-3.55 110.19-4.05 111.34-4.55 112.29-5.4L112.29-5.4Q114.34-7.25 114.54-11.15L114.54-11.15 114.54-23.5 110.19-24.45 110.19-27 120.39-27 120.39-3.5 124.24-2.55 124.24 0 115.49 0.5 114.94-5 114.74-5Q113.29-2.45 110.79-0.98 108.29 0.5 105.44 0.5L105.44 0.5Q103.54 0.5 101.97-0.23 100.39-0.95 99.49-2.2L99.49-2.2Q98.54-3.6 98.09-6.15 97.64-8.7 97.64-12.95L97.64-12.95 97.64-23.5 94.29-24.45 94.29-27ZM126.49-2.6L130.34-3.55 130.34-35.45 126.49-36.4 126.49-39 136.19-39 136.19-3.55 140.04-2.6 140.04 0 126.49 0 126.49-2.6ZM142.94-5.9L142.94-5.9Q142.94-9.95 146.69-12.23 150.44-14.5 158.69-15.75L158.69-15.75Q158.49-18.4 158.14-19.85 157.79-21.3 157.24-22.25L157.24-22.25Q156.54-23.45 155.49-24.13 154.44-24.8 152.99-24.8L152.99-24.8Q151.84-24.8 150.89-24.38 149.94-23.95 149.59-23.2L149.59-23.2Q150.29-22.8 150.59-22.03 150.89-21.25 150.89-20.65L150.89-20.65Q150.89-19.4 149.86-18.5 148.84-17.6 147.44-17.6L147.44-17.6Q145.99-17.6 145.14-18.55 144.29-19.5 144.29-21.05L144.29-21.05Q144.29-23.1 145.74-24.55 147.19-26 149.41-26.75 151.64-27.5 153.94-27.5L153.94-27.5Q156.19-27.5 158.01-26.85 159.84-26.2 160.99-25.1L160.99-25.1Q164.69-21.75 164.69-14.05L164.69-14.05 164.69-7.3Q164.69-4.85 165.01-3.9 165.34-2.95 166.44-2.95L166.44-2.95 168.69-2.95 168.69-0.95Q164.39 0.5 162.19 0.5L162.19 0.5Q160.54 0.5 160.01-0.6 159.49-1.7 159.49-4.95L159.49-4.95 159.29-4.95Q157.74-2.4 155.19-0.95 152.64 0.5 149.69 0.5L149.69 0.5Q146.54 0.5 144.74-1.2 142.94-2.9 142.94-5.9ZM152.39-2.9L152.39-2.9Q153.59-2.9 154.94-3.6 156.29-4.3 157.29-5.6L157.29-5.6Q157.89-6.4 158.36-7.73 158.84-9.05 158.84-10.85L158.84-10.85Q158.84-11.55 158.79-12.33 158.74-13.1 158.64-13.75L158.64-13.75Q154.99-13 152.89-12.13 150.79-11.25 149.94-10.05 149.09-8.85 149.09-7.05L149.09-7.05Q149.09-4.9 150.06-3.9 151.04-2.9 152.39-2.9ZM184.64 0.55L184.64 0.55Q181.74 0.55 179.61-0.3 177.49-1.15 175.94-2.9L175.94-2.9 175.39 0 171.59 0 171.59-11.85 175.64-11.85Q175.94-6.95 178.06-4.83 180.19-2.7 183.99-2.7L183.99-2.7Q187.04-2.7 188.79-3.95 190.54-5.2 190.54-7.8L190.54-7.8Q190.54-9.85 189.41-11.23 188.29-12.6 186.26-13.68 184.24-14.75 181.54-15.85L181.54-15.85Q178.39-17.15 176.19-18.48 173.99-19.8 172.86-21.68 171.74-23.55 171.74-26.45L171.74-26.45Q171.74-31.25 174.71-33.9 177.69-36.55 182.69-36.55L182.69-36.55Q187.64-36.55 190.74-33.75L190.74-33.75 191.14-36 194.94-36 194.94-24.15 191.09-24.15Q191.09-28.9 189.31-31.13 187.54-33.35 183.84-33.35L183.84-33.35Q177.79-33.35 177.79-27.7L177.79-27.7Q177.79-26 178.44-24.93 179.09-23.85 180.71-22.95 182.34-22.05 185.14-20.8L185.14-20.8Q189.34-18.95 191.86-17.3 194.39-15.65 195.49-13.8 196.59-11.95 196.59-9.45L196.59-9.45Q196.59-6.2 195.01-3.95 193.44-1.7 190.74-0.58 188.04 0.55 184.64 0.55Z" opacity="1" transform="matrix(1,0,0,1,0,0)" fill="#000000" class="undefined-text-0" data-fill-palette-color="primary" id="text-0"></path></svg></g></svg></g><g transform="matrix(1,0,0,1,0,75.41730973007184)"><svg viewBox="0 0 244.43135999999998 23.844607393364928" height="23.844607393364928" width="244.43135999999998"><g transform="matrix(1,0,0,1,0,0)"><svg width="244.43135999999998" viewBox="1.9800000190734863 -38.09000015258789 494.47998046875 48.25" height="23.844607393364928" data-palette-color="#c8c8c8"><path d="M14.75 0L1.98 0 1.98-3.08 5.96-3.76 5.96-31.76 1.98-32.45 1.98-35.55 28.71-35.55 28.71-27 24.85-27 24.32-31.81 10.77-31.81 10.77-19.51 23.78-19.51 23.78-15.72 10.77-15.72 10.77-3.76 14.75-3.08 14.75 0ZM44.55 0L31.78 0 31.78-3.08 35.76-3.76 35.76-22.63 31.78-23.32 31.78-26.42 40.06-26.42 40.48-23.05 40.52-22.58Q41.65-24.61 43.3-25.76 44.94-26.9 47.07-26.9L47.07-26.9Q47.82-26.9 48.62-26.77 49.41-26.64 49.75-26.51L49.75-26.51 49.12-22.05 45.77-22.24Q43.87-22.36 42.58-21.37 41.28-20.39 40.57-18.73L40.57-18.73 40.57-3.76 44.55-3.08 44.55 0ZM64.23 0.51L64.23 0.51Q60.57 0.51 57.86-1.16 55.15-2.83 53.67-5.81 52.19-8.79 52.19-12.7L52.19-12.7 52.19-13.77Q52.19-17.53 53.74-20.5 55.29-23.46 57.87-25.18 60.44-26.9 63.5-26.9L63.5-26.9Q67.06-26.9 69.47-25.44 71.87-23.97 73.09-21.33 74.31-18.68 74.31-15.09L74.31-15.09 74.31-12.08 57.17-12.08 57.1-11.96Q57.15-9.42 57.99-7.46 58.83-5.49 60.42-4.37 62.01-3.25 64.23-3.25L64.23-3.25Q66.67-3.25 68.51-3.94 70.36-4.64 71.7-5.86L71.7-5.86 73.58-2.73Q72.16-1.37 69.83-0.43 67.5 0.51 64.23 0.51ZM57.27-15.97L57.32-15.84 69.5-15.84 69.5-16.48Q69.5-18.38 68.83-19.89 68.16-21.39 66.83-22.25 65.5-23.12 63.5-23.12L63.5-23.12Q61.88-23.12 60.57-22.18 59.25-21.24 58.39-19.63 57.54-18.02 57.27-15.97L57.27-15.97ZM90.81 0.51L90.81 0.51Q87.15 0.51 84.44-1.16 81.73-2.83 80.25-5.81 78.78-8.79 78.78-12.7L78.78-12.7 78.78-13.77Q78.78-17.53 80.33-20.5 81.88-23.46 84.45-25.18 87.03-26.9 90.08-26.9L90.08-26.9Q93.64-26.9 96.05-25.44 98.45-23.97 99.68-21.33 100.9-18.68 100.9-15.09L100.9-15.09 100.9-12.08 83.76-12.08 83.68-11.96Q83.73-9.42 84.58-7.46 85.42-5.49 87-4.37 88.59-3.25 90.81-3.25L90.81-3.25Q93.25-3.25 95.1-3.94 96.94-4.64 98.28-5.86L98.28-5.86 100.16-2.73Q98.75-1.37 96.42-0.43 94.08 0.51 90.81 0.51ZM83.85-15.97L83.9-15.84 96.09-15.84 96.09-16.48Q96.09-18.38 95.41-19.89 94.74-21.39 93.41-22.25 92.08-23.12 90.08-23.12L90.08-23.12Q88.47-23.12 87.15-22.18 85.83-21.24 84.98-19.63 84.12-18.02 83.85-15.97L83.85-15.97ZM117.15 0L104.38 0 104.38-3.08 108.36-3.76 108.36-34.3 104.38-34.99 104.38-38.09 113.17-38.09 113.17-3.76 117.15-3.08 117.15 0ZM129.11 0.51L129.11 0.51Q124.99 0.51 122.84-1.5 120.69-3.52 120.69-7.18L120.69-7.18Q120.69-9.69 122.07-11.56 123.45-13.43 126.06-14.47 128.67-15.5 132.31-15.5L132.31-15.5 137.02-15.5 137.02-18.09Q137.02-20.48 135.57-21.8 134.12-23.12 131.48-23.12L131.48-23.12Q129.82-23.12 128.6-22.72 127.38-22.31 126.38-21.61L126.38-21.61 125.87-17.92 122.16-17.92 122.16-23.97Q123.94-25.42 126.31-26.16 128.67-26.9 131.55-26.9L131.55-26.9Q136.36-26.9 139.1-24.61 141.83-22.31 141.83-18.04L141.83-18.04 141.83-5.32Q141.83-4.81 141.85-4.32 141.86-3.83 141.91-3.34L141.91-3.34 144.47-3.08 144.47 0 137.56 0Q137.34-1.07 137.22-1.93 137.1-2.78 137.05-3.64L137.05-3.64Q135.66-1.86 133.57-0.67 131.48 0.51 129.11 0.51ZM129.82-3.52L129.82-3.52Q132.21-3.52 134.19-4.66 136.17-5.81 137.02-7.42L137.02-7.42 137.02-12.21 132.14-12.21Q128.82-12.21 127.16-10.62 125.5-9.03 125.5-7.08L125.5-7.08Q125.5-5.35 126.57-4.43 127.65-3.52 129.82-3.52ZM160.97 0L148.2 0 148.2-3.08 152.18-3.76 152.18-22.63 148.2-23.32 148.2-26.42 156.48-26.42 156.82-22.49Q158.14-24.58 160.13-25.74 162.12-26.9 164.66-26.9L164.66-26.9Q168.93-26.9 171.27-24.4 173.62-21.9 173.62-16.67L173.62-16.67 173.62-3.76 177.6-3.08 177.6 0 164.83 0 164.83-3.08 168.81-3.76 168.81-16.58Q168.81-20.07 167.43-21.53 166.05-23 163.22-23L163.22-23Q161.14-23 159.54-22 157.94-21 156.99-19.26L156.99-19.26 156.99-3.76 160.97-3.08 160.97 0ZM192.68 0.51L192.68 0.51Q189.09 0.51 186.43-1.16 183.77-2.83 182.31-5.81 180.84-8.79 180.84-12.7L180.84-12.7 180.84-13.72Q180.84-17.48 182.26-20.46 183.67-23.44 186.34-25.17 189-26.9 192.68-26.9L192.68-26.9Q195.88-26.9 198.29-25.85 200.69-24.8 202.33-22.97L202.33-22.97 202.45-16.63 198.69-16.63 197.86-21.24Q197.03-22.09 195.78-22.61 194.54-23.12 192.85-23.12L192.85-23.12Q190.71-23.12 189.08-21.85 187.46-20.58 186.55-18.46 185.65-16.33 185.65-13.72L185.65-13.72 185.65-12.7Q185.65-9.81 186.49-7.69 187.34-5.57 188.91-4.41 190.49-3.25 192.66-3.25L192.66-3.25Q195.1-3.25 196.71-4.59 198.32-5.93 198.69-8.28L198.69-8.28 203.01-8.28 203.06-8.13Q202.94-5.86 201.72-3.88 200.5-1.9 198.24-0.7 195.98 0.51 192.68 0.51ZM219.44 0.51L219.44 0.51Q215.78 0.51 213.07-1.16 210.36-2.83 208.88-5.81 207.4-8.79 207.4-12.7L207.4-12.7 207.4-13.77Q207.4-17.53 208.95-20.5 210.5-23.46 213.08-25.18 215.65-26.9 218.71-26.9L218.71-26.9Q222.27-26.9 224.67-25.44 227.08-23.97 228.3-21.33 229.52-18.68 229.52-15.09L229.52-15.09 229.52-12.08 212.38-12.08 212.31-11.96Q212.36-9.42 213.2-7.46 214.04-5.49 215.63-4.37 217.22-3.25 219.44-3.25L219.44-3.25Q221.88-3.25 223.72-3.94 225.57-4.64 226.91-5.86L226.91-5.86 228.79-2.73Q227.37-1.37 225.04-0.43 222.71 0.51 219.44 0.51ZM212.48-15.97L212.53-15.84 224.71-15.84 224.71-16.48Q224.71-18.38 224.04-19.89 223.37-21.39 222.04-22.25 220.71-23.12 218.71-23.12L218.71-23.12Q217.09-23.12 215.78-22.18 214.46-21.24 213.6-19.63 212.75-18.02 212.48-15.97L212.48-15.97ZM245.97 0L233.21 0 233.21-3.08 237.18-3.76 237.18-22.63 233.21-23.32 233.21-26.42 241.48-26.42 241.9-23.05 241.95-22.58Q243.07-24.61 244.72-25.76 246.36-26.9 248.49-26.9L248.49-26.9Q249.25-26.9 250.04-26.77 250.83-26.64 251.17-26.51L251.17-26.51 250.54-22.05 247.19-22.24Q245.29-22.36 244-21.37 242.7-20.39 241.99-18.73L241.99-18.73 241.99-3.76 245.97-3.08 245.97 0ZM280.86 0L266.7 0 266.7-3.08 270.68-3.76 270.68-31.76 266.7-32.45 266.7-35.55 270.68-35.55 280.61-35.55Q285.32-35.55 288.83-33.3 292.33-31.05 294.28-27.12 296.24-23.19 296.24-18.14L296.24-18.14 296.24-17.38Q296.24-12.45 294.36-8.51 292.48-4.57 289.02-2.28 285.57 0 280.86 0L280.86 0ZM275.49-31.76L275.49-3.76 280.61-3.76Q283.98-3.76 286.4-5.6 288.82-7.45 290.12-10.53 291.43-13.62 291.43-17.38L291.43-17.38 291.43-18.19Q291.43-22.07 290.12-25.13 288.82-28.2 286.4-29.98 283.98-31.76 280.61-31.76L280.61-31.76 275.49-31.76ZM311.66 0.51L311.66 0.51Q308 0.51 305.29-1.16 302.58-2.83 301.11-5.81 299.63-8.79 299.63-12.7L299.63-12.7 299.63-13.77Q299.63-17.53 301.18-20.5 302.73-23.46 305.3-25.18 307.88-26.9 310.93-26.9L310.93-26.9Q314.5-26.9 316.9-25.44 319.31-23.97 320.53-21.33 321.75-18.68 321.75-15.09L321.75-15.09 321.75-12.08 304.61-12.08 304.54-11.96Q304.58-9.42 305.43-7.46 306.27-5.49 307.86-4.37 309.44-3.25 311.66-3.25L311.66-3.25Q314.11-3.25 315.95-3.94 317.79-4.64 319.14-5.86L319.14-5.86 321.01-2.73Q319.6-1.37 317.27-0.43 314.94 0.51 311.66 0.51ZM304.71-15.97L304.76-15.84 316.94-15.84 316.94-16.48Q316.94-18.38 316.27-19.89 315.6-21.39 314.26-22.25 312.93-23.12 310.93-23.12L310.93-23.12Q309.32-23.12 308-22.18 306.68-21.24 305.83-19.63 304.97-18.02 304.71-15.97L304.71-15.97ZM340.1 0L335.88 0 326.48-22.95 323.75-23.32 323.75-26.42 334.83-26.42 334.83-23.32 331.39-22.83 337.25-7.79 337.93-5.66 338.08-5.66 338.86-7.79 344.3-22.83 340.76-23.32 340.76-26.42 351.82-26.42 351.82-23.32 349.04-22.95 340.1 0ZM365.79 0.51L365.79 0.51Q362.12 0.51 359.41-1.16 356.7-2.83 355.23-5.81 353.75-8.79 353.75-12.7L353.75-12.7 353.75-13.77Q353.75-17.53 355.3-20.5 356.85-23.46 359.43-25.18 362-26.9 365.05-26.9L365.05-26.9Q368.62-26.9 371.02-25.44 373.43-23.97 374.65-21.33 375.87-18.68 375.87-15.09L375.87-15.09 375.87-12.08 358.73-12.08 358.66-11.96Q358.71-9.42 359.55-7.46 360.39-5.49 361.98-4.37 363.56-3.25 365.79-3.25L365.79-3.25Q368.23-3.25 370.07-3.94 371.91-4.64 373.26-5.86L373.26-5.86 375.14-2.73Q373.72-1.37 371.39-0.43 369.06 0.51 365.79 0.51ZM358.83-15.97L358.88-15.84 371.06-15.84 371.06-16.48Q371.06-18.38 370.39-19.89 369.72-21.39 368.39-22.25 367.05-23.12 365.05-23.12L365.05-23.12Q363.44-23.12 362.12-22.18 360.8-21.24 359.95-19.63 359.1-18.02 358.83-15.97L358.83-15.97ZM392.13 0L379.36 0 379.36-3.08 383.34-3.76 383.34-34.3 379.36-34.99 379.36-38.09 388.15-38.09 388.15-3.76 392.13-3.08 392.13 0ZM406.99 0.51L406.99 0.51Q403.33 0.51 400.68-1.21 398.03-2.93 396.59-5.97 395.15-9.01 395.15-12.92L395.15-12.92 395.15-13.45Q395.15-17.36 396.59-20.4 398.03-23.44 400.68-25.17 403.33-26.9 406.94-26.9L406.94-26.9Q410.6-26.9 413.25-25.17 415.9-23.44 417.34-20.41 418.78-17.38 418.78-13.45L418.78-13.45 418.78-12.92Q418.78-8.98 417.34-5.94 415.9-2.91 413.27-1.2 410.63 0.51 406.99 0.51ZM406.99-3.25L406.99-3.25Q409.29-3.25 410.84-4.5 412.39-5.76 413.18-7.95 413.97-10.13 413.97-12.92L413.97-12.92 413.97-13.45Q413.97-16.24 413.18-18.42 412.39-20.61 410.82-21.86 409.26-23.12 406.94-23.12L406.94-23.12Q404.65-23.12 403.09-21.86 401.52-20.61 400.74-18.42 399.96-16.24 399.96-13.45L399.96-13.45 399.96-12.92Q399.96-10.13 400.74-7.95 401.52-5.76 403.1-4.5 404.67-3.25 406.99-3.25ZM434.5 10.16L421.76 10.16 421.76 7.06 425.49 6.37 425.49-22.63 421.52-23.32 421.52-26.42 429.62-26.42 430.06-23.19Q431.38-25 433.27-25.95 435.16-26.9 437.65-26.9L437.65-26.9Q440.92-26.9 443.24-25.13 445.56-23.36 446.78-20.18 448-16.99 448-12.72L448-12.72 448-12.21Q448-8.4 446.77-5.54 445.54-2.69 443.24-1.09 440.95 0.51 437.73 0.51L437.73 0.51Q435.28 0.51 433.44-0.31 431.6-1.12 430.3-2.73L430.3-2.73 430.3 6.37 434.5 7.06 434.5 10.16ZM436.24-3.25L436.24-3.25Q439.65-3.25 441.41-5.74 443.17-8.23 443.17-12.21L443.17-12.21 443.17-12.72Q443.17-15.75 442.39-18.05 441.61-20.36 440.06-21.68 438.51-23 436.19-23L436.19-23Q434.14-23 432.67-22.07 431.21-21.14 430.3-19.53L430.3-19.53 430.3-6.67Q431.21-5.03 432.66-4.14 434.11-3.25 436.24-3.25ZM464.73 0.51L464.73 0.51Q461.06 0.51 458.35-1.16 455.64-2.83 454.17-5.81 452.69-8.79 452.69-12.7L452.69-12.7 452.69-13.77Q452.69-17.53 454.24-20.5 455.79-23.46 458.37-25.18 460.94-26.9 463.99-26.9L463.99-26.9Q467.56-26.9 469.96-25.44 472.37-23.97 473.59-21.33 474.81-18.68 474.81-15.09L474.81-15.09 474.81-12.08 457.67-12.08 457.6-11.96Q457.65-9.42 458.49-7.46 459.33-5.49 460.92-4.37 462.5-3.25 464.73-3.25L464.73-3.25Q467.17-3.25 469.01-3.94 470.85-4.64 472.2-5.86L472.2-5.86 474.08-2.73Q472.66-1.37 470.33-0.43 468 0.51 464.73 0.51ZM457.77-15.97L457.82-15.84 470-15.84 470-16.48Q470-18.38 469.33-19.89 468.66-21.39 467.33-22.25 466-23.12 463.99-23.12L463.99-23.12Q462.38-23.12 461.06-22.18 459.75-21.24 458.89-19.63 458.04-18.02 457.77-15.97L457.77-15.97ZM491.26 0L478.49 0 478.49-3.08 482.47-3.76 482.47-22.63 478.49-23.32 478.49-26.42 486.77-26.42 487.18-23.05 487.23-22.58Q488.36-24.61 490-25.76 491.65-26.9 493.78-26.9L493.78-26.9Q494.53-26.9 495.33-26.77 496.12-26.64 496.46-26.51L496.46-26.51 495.83-22.05 492.48-22.24Q490.58-22.36 489.28-21.37 487.99-20.39 487.28-18.73L487.28-18.73 487.28-3.76 491.26-3.08 491.26 0Z" opacity="1" transform="matrix(1,0,0,1,0,0)" fill="#c8c8c8" class="undefined-text-1" data-fill-palette-color="secondary" id="text-1"></path></svg></g></svg></g></svg></g></svg></g></svg></g></svg></g></svg></g><g><path d="M245.816 0c68.262 0 123.6 55.338 123.6 123.6 0 68.262-55.338 123.6-123.6 123.6-47.771 0-89.212-27.101-109.788-66.767l3.109 0c20.337 38.093 60.48 64.016 106.679 64.016 66.743 0 120.849-54.106 120.849-120.849 0-66.743-54.106-120.849-120.849-120.849-46.198 0-86.342 25.923-106.679 64.016l-3.109 0c20.575-39.666 62.017-66.767 109.788-66.767z" fill="#000000" stroke="transparent" data-fill-palette-color="tertiary"></path></g></svg></g><defs></defs></svg><rect width="395.52" height="247.2" fill="none" stroke="none" visibility="hidden"></rect></g></svg></g></svg>